<svg width="12" height="12" viewBox="0 0 12 12" fill="none" xmlns="http://www.w3.org/2000/svg">
<path d="M6 1.08C7.595 1.08 7.787 1.086 8.396 1.115C8.953 1.142 9.26 1.242 9.464 1.326C9.736 1.436 9.928 1.571 10.129 1.772C10.331 1.973 10.466 2.166 10.576 2.437C10.66 2.641 10.76 2.948 10.787 3.505C10.816 4.115 10.822 4.307 10.822 5.901C10.822 7.495 10.816 7.687 10.787 8.296C10.76 8.853 10.66 9.16 10.576 9.364C10.466 9.635 10.331 9.828 10.129 10.029C9.928 10.23 9.736 10.365 9.464 10.475C9.26 10.559 8.953 10.659 8.396 10.686C7.787 10.715 7.595 10.721 6 10.721C4.405 10.721 4.213 10.715 3.604 10.686C3.047 10.659 2.74 10.559 2.536 10.475C2.264 10.365 2.072 10.23 1.871 10.029C1.669 9.828 1.534 9.635 1.424 9.364C1.34 9.16 1.24 8.853 1.213 8.296C1.184 7.687 1.178 7.495 1.178 5.901C1.178 4.307 1.184 4.115 1.213 3.505C1.24 2.948 1.34 2.641 1.424 2.437C1.534 2.166 1.669 1.973 1.871 1.772C2.072 1.571 2.264 1.436 2.536 1.326C2.74 1.242 3.047 1.142 3.604 1.115C4.213 1.086 4.405 1.08 6 1.08ZM6 0C4.371 0 4.166 0.007 3.548 0.036C2.931 0.065 2.521 0.172 2.164 0.324C1.792 0.482 1.48 0.692 1.169 1.003C0.858 1.314 0.648 1.626 0.49 1.998C0.338 2.355 0.231 2.765 0.202 3.382C0.173 4 0.166 4.205 0.166 5.834C0.166 7.463 0.173 7.668 0.202 8.286C0.231 8.903 0.338 9.313 0.49 9.67C0.648 10.042 0.858 10.354 1.169 10.665C1.48 10.976 1.792 11.186 2.164 11.344C2.521 11.496 2.931 11.603 3.548 11.632C4.166 11.661 4.371 11.668 6 11.668C7.629 11.668 7.834 11.661 8.452 11.632C9.069 11.603 9.479 11.496 9.836 11.344C10.208 11.186 10.52 10.976 10.831 10.665C11.142 10.354 11.352 10.042 11.51 9.67C11.662 9.313 11.769 8.903 11.798 8.286C11.827 7.668 11.834 7.463 11.834 5.834C11.834 4.205 11.827 4 11.798 3.382C11.769 2.765 11.662 2.355 11.51 1.998C11.352 1.626 11.142 1.314 10.831 1.003C10.52 0.692 10.208 0.482 9.836 0.324C9.479 0.172 9.069 0.065 8.452 0.036C7.834 0.007 7.629 0 6 0Z" fill="black"/>
<path d="M6 2.883C4.271 2.883 2.884 4.27 2.884 6C2.884 7.73 4.271 9.117 6 9.117C7.729 9.117 9.116 7.73 9.116 6C9.116 4.27 7.729 2.883 6 2.883ZM6 8.049C4.857 8.049 3.952 7.144 3.952 6C3.952 4.856 4.857 3.951 6 3.951C7.143 3.951 8.048 4.856 8.048 6C8.048 7.144 7.143 8.049 6 8.049Z" fill="black"/>
<path d="M9.243 2.759C9.243 3.157 8.921 3.479 8.523 3.479C8.125 3.479 7.803 3.157 7.803 2.759C7.803 2.361 8.125 2.039 8.523 2.039C8.921 2.039 9.243 2.361 9.243 2.759Z" fill="black"/>
</svg>